<svg height="512" viewBox="0 0 60 60" width="512" xmlns="http://www.w3.org/2000/svg"><g id="032---Law"><path fill="#4643f2" id="Shape" d="m57 5h-20l-4.15-4.12c-1.1884135-1.12762879-3.0515865-1.12762879-4.24 0l-4.12 4.12h-21.49c-1.65685425 0-3 1.34314575-3 3v39c0 1.6568542 1.34314575 3 3 3h17.66l-2.4 8h-2.26c-.5522847 0-1 .4477153-1 1s.4477153 1 1 1h28c.5522847 0 1-.4477153 1-1s-.4477153-1-1-1h-2.26l-2.4-8h17.66c1.6568542 0 3-1.3431458 3-3v-39c0-1.65685425-1.3431458-3-3-3zm-27-2.71c.1877666-.18931265.4433625-.29579832.71-.29579832s.5222334.10648567.71.29579832l7.07 7.07c.1893127.1877666.2957983.44336246.2957983.71 0 .2666375-.1064856.5222334-.2957983.71l-1.42 1.41-5-4.95c-.3900375-.38772359-1.0199625-.38772359-1.41 0-.1893127.1877666-.2957983.44336246-.2957983.71s.1064856.5222334.2957983.71l4.95 4.95-7.07 7.07-.64-.68c-.3900375-.3877236-1.0199625-.3877236-1.41 0-.3877236.3900375-.3877236 1.0199625 0 1.41l.7.71-1.41 1.42c-.1877666.1893127-.4433625.2957983-.71.2957983s-.5222334-.1064856-.71-.2957983l-7.07-7.08c-.3877236-.3900375-.3877236-1.0199625 0-1.41l1.42-1.41 4.95 4.95c.3900375.3877236 1.0199625.3877236 1.41 0 .1893127-.1877666.2957983-.4433625.2957983-.71s-.1064856-.5222334-.2957983-.71l-4.95-5 7.07-7.07.71.71c.3900375.38772359 1.0199625.38772359 1.41 0 .1893127-.1877666.2957983-.44336246.2957983-.71s-.1064856-.5222334-.2957983-.71l-.7-.7zm5.66 17-1.42 1.42-1.41-1.42 1.41-1.41zm3.53.71 1.42 1.41-4.25 4.25-1.36-1.45c-.3877236-.3900375-.3877236-1.0199625 0-1.41l2.8-2.8c.3900375-.3877236 1.0199625-.3877236 1.41 0zm12.43 12.38c.3877236.3900375.3877236 1.0199625 0 1.41l-2.83 2.83c-.3900375.3877236-1.0199625.3877236-1.41 0l-9.58-9.62 4.2-4.2zm-11.96 25.62h-19.32l2.4-8h14.52zm17.34-10h-54c-.55228475 0-1-.4477153-1-1v-4h4c.55228475 0 1-.4477153 1-1s-.44771525-1-1-1h-4v-33c0-.55228475.44771525-1 1-1h19.49l-6.61 6.61c-1.1698135 1.1712702-1.1698135 3.0687298 0 4.24l7.12 7.07c1.1712702 1.1698135 3.0687298 1.1698135 4.24 0l4.25-4.24 1.51 1.54c-.5473673 1.1449301-.3151142 2.5104186.58 3.41l12.42 12.37c.5629056.5648636 1.3275456.8823657 2.125.8823657s1.5620944-.3175021 2.125-.8823657l2.75-2.79c1.1499786-1.1677424 1.1499786-3.0422576 0-4.21l-12.4-12.4c-.8896097-.8885421-2.2389216-1.1280649-3.38-.6l-1.54-1.54 4.24-4.25c1.1698135-1.1712702 1.1698135-3.06872981 0-4.24l-.92-.97h18c.5522847 0 1 .44771525 1 1v33h-48c-.55228475 0-1 .4477153-1 1s.44771525 1 1 1h48v4c0 .5522847-.4477153 1-1 1z"/><path fill="#4643f2" id="Shape" d="m27 37v-4c0-2.7614237-2.2385763-5-5-5h-10c-2.76142375 0-5 2.2385763-5 5v4c0 .5522847.44771525 1 1 1h18c.5522847 0 1-.4477153 1-1zm-15-7h10c1.2682549.0035644 2.3972517.8042713 2.82 2h-15.64c.4227483-1.1957287 1.5517451-1.9964356 2.82-2zm-3 6v-2h16v2z"/><path fill="#4643f2" id="Shape" d="m6.29 25.71c.39212217.3921222 1.02787783.3921222 1.42 0s.39212217-1.0278778 0-1.42l-2-2c-.39212218-.3921222-1.02787781-.3921221-1.41999998 0-.39212216.3921222-.39212217 1.0278778-.00000002 1.42z"/><path fill="#4643f2" id="Shape" d="m6 27h-2c-.55228475 0-1 .4477153-1 1s.44771525 1 1 1h2c.55228475 0 1-.4477153 1-1s-.44771525-1-1-1z"/><path fill="#4643f2" id="Shape" d="m28 30c.41 0 .28 0 3.55-2.17.4021248-.3239123.4915129-.9007244.206288-1.3311547s-.8512619-.5729246-1.306288-.3288453l-3 2c-.3640258.2445986-.5261957.6978475-.3999631 1.1178578.1262326.4200102.5114066.7087569.9499631.7121422z"/><path fill="#4643f2" id="Shape" d="m31.45 32.11-2-1c-.4835272-.2013504-1.0404963.0045141-1.2768341.4719378s-.0719586 1.0380149.3768341 1.3080622l2 1c.3211808.1932607.7234705.1906728 1.0421383-.0067041.3186678-.1973768.5001928-.5563928.4702434-.9300368s-.2663431-.6991617-.6123817-.8432591z"/></g></svg>