<?xml version="1.0" encoding="iso-8859-1"?>
<!-- Generator: Adobe Illustrator 19.0.0, SVG Export Plug-In . SVG Version: 6.00 Build 0)  -->
<svg version="1.1" id="Capa_1" xmlns="http://www.w3.org/2000/svg" xmlns:xlink="http://www.w3.org/1999/xlink" x="0px" y="0px"
	 viewBox="0 0 501.704 501.704" style="enable-background:new 0 0 501.704 501.704;" xml:space="preserve">
<g>
	<g>
		<circle style="fill: #4641fd" cx="378.608" cy="178.852" r="8"/>
	</g>
</g>
<g>
	<g>
		<circle style="fill: #4641fd" cx="282.608" cy="178.852" r="8"/>
	</g>
</g>
<g>
	<g>
		<path style="fill: #4641fd" d="M222.936,426.852h278.768l-26.368-79.12c-6.576-19.728-23.408-34.112-43.92-37.52l-52.224-8.704
			c14.24-8.408,26.12-20.344,34.424-34.656h12.992c13.232,0,24-10.768,24-24c13.232,0,24-10.768,24-24v-32
			c0-10.416-6.712-19.216-16-22.528v-33.472c0-70.576-57.424-128-128-128s-128,57.424-128,128v33.472
			c-9.288,3.312-16,12.112-16,22.528v32c0,13.232,10.768,24,24,24h27.16c6.448,24.912,22.616,45.88,44.256,58.656l-52.216,8.704
			c-3.832,0.632-7.576,1.744-11.192,3.16v-14.52c0-48.52-39.48-88-88-88c-48.52,0-88.008,39.48-88.008,88v40
			c0,15.576,11.192,28.544,25.952,31.392c4.328,17.448,15.776,32.096,31.136,40.608h-1.088v1.44l-44.864,8.976
			c-20.656,4.128-37.08,19.272-42.864,39.528L0,498.852h261.208l-10.872-38.056C246.096,445.94,236.096,433.876,222.936,426.852z
			 M344.848,410.852h-28.48l6.736-33.68l-11.984-17.976l19.488-11.128l19.488,11.136l-11.984,17.976L344.848,410.852z
			 M307.144,311.828c7.52,1.904,15.36,3.024,23.464,3.024s15.944-1.12,23.464-3.024c-2.296,10.856-11.936,19.024-23.464,19.024
			S309.44,322.684,307.144,311.828z M428.776,325.988c14.664,2.448,26.68,12.712,31.384,26.808l19.352,58.056h-38.344l-6.712-33.568
			l-15.688,3.144l6.08,30.424h-63.68l-6.064-30.32l8.912-13.376l27.48,15.704l17.2-60.216L428.776,325.988z M392.824,319.996
			l-11.104,38.848l-30.912-17.664c9.216-5.448,16.064-14.392,18.616-25.08L392.824,319.996z M426.608,250.852h-5.6
			c0.928-2.616,1.736-5.28,2.44-8h11.16C434.608,247.26,431.016,250.852,426.608,250.852z M458.608,186.852v32c0,4.408-3.592,8-8,8
			v-16h-16v16H426.2c0.224-2.648,0.408-5.296,0.408-8v-40h24C455.016,178.852,458.608,182.444,458.608,186.852z M210.608,226.852
			c-4.408,0-8-3.592-8-8v-32c0-4.408,3.592-8,8-8h24v40c0,2.704,0.184,5.352,0.408,8H210.608z M234.608,138.852v24h-16v-32
			c0-61.76,50.24-112,112-112s112,50.24,112,112v32h-16v-24h-8c-13.336,0-25.88-5.192-35.312-14.624l-27.824-27.824l-15.944,11.392
			c-28.44,20.312-61.96,31.056-96.92,31.056H234.608z M250.608,218.852v-64.168c35.416-1.52,69.224-13.16,98.216-33.864l4.92-3.512
			l18.24,18.24c10.544,10.544,24.04,17.08,38.624,18.832v64.472c0,11.376-2.424,22.192-6.728,32h-42.744
			c-3.312-9.288-12.112-16-22.528-16h-16c-13.232,0-24,10.768-24,24s10.768,24,24,24h16c10.416,0,19.216-6.712,22.528-16h33.32
			c-14.616,19.384-37.752,32-63.848,32C286.496,298.852,250.608,262.964,250.608,218.852z M346.608,258.852c0,4.416-3.592,8-8,8h-16
			c-4.408,0-8-3.584-8-8c0-4.408,3.592-8,8-8h16C343.016,250.852,346.608,254.444,346.608,258.852z M291.792,316.1
			c2.552,10.688,9.4,19.632,18.616,25.08l-30.912,17.664l-11.104-38.848L291.792,316.1z M218.608,338.852v-7.768
			c4.248-2.52,8.952-4.28,13.824-5.088l20.08-3.344l17.2,60.216l27.48-15.704l8.912,13.376l-6.056,30.312h-63.68l6.088-30.432
			l-15.688-3.144l-6.72,33.576h-57.44h-1.088c15.36-8.512,26.808-23.168,31.136-40.608
			C207.416,367.396,218.608,354.428,218.608,338.852z M194.608,352.628v-27.552c4.76,2.776,8,7.88,8,13.776
			S199.368,349.852,194.608,352.628z M66.608,352.628c-4.76-2.776-8-7.88-8-13.776s3.24-11,8-13.776V352.628z M58.608,311.3v-12.448
			c0-39.704,32.304-72,72-72s72,32.296,72,72V311.3c-4.728-2.752-10.144-4.448-16-4.448h-14.056
			c-19.752,0-38.32-7.688-52.288-21.656l-6.896-6.896l-8.104,12.152c-6.848,10.264-18.312,16.4-30.656,16.4
			C68.752,306.852,63.336,308.548,58.608,311.3z M82.608,354.852v-32.68c13.136-2.008,25.072-8.816,33.392-19.312
			c15.96,12.952,35.712,19.992,56.552,19.992h6.056v32c0,26.472-21.528,48-48,48S82.608,381.324,82.608,354.852z M146.608,416.748
			v2.104c0,8.824-7.176,16-16,16c-8.824,0-16-7.176-16-16v-2.104c5.128,1.328,10.464,2.104,16,2.104S141.48,418.076,146.608,416.748
			z M200.856,482.852l-6.488-25.936l-15.52,3.872l5.512,22.064H76.856l5.512-22.064l-15.52-3.872l-6.488,25.936H21.216l5.048-17.664
			c4.136-14.472,15.864-25.28,30.616-28.232l43.312-8.664c4.056,13.024,16.08,22.56,30.416,22.56s26.36-9.536,30.416-22.56
			l43.32,8.664c14.752,2.952,26.48,13.768,30.616,28.232l5.04,17.664H200.856z"/>
	</g>
</g>
<g>
	<g>
		<path style="fill: #4641fd" d="M130.608,106.852c-13.232,0-24,10.768-24,24s10.768,24,24,24s24-10.768,24-24S143.84,106.852,130.608,106.852z
			 M130.608,138.852c-4.408,0-8-3.592-8-8s3.592-8,8-8s8,3.592,8,8S135.016,138.852,130.608,138.852z"/>
	</g>
</g>
<g>
	<g>
		<path style="fill: #4641fd" d="M91.016,91.252c-21.832,21.832-21.832,57.36,0,79.192l11.312-11.312c-15.592-15.6-15.592-40.976,0-56.568
			c15.592-15.592,40.976-15.592,56.568,0l11.312-11.312C148.376,69.42,112.848,69.42,91.016,91.252z"/>
	</g>
</g>
<g>
	<g>
		<path style="fill: #4641fd" d="M68.384,68.62c-34.312,34.312-34.312,90.144,0,124.456l11.312-11.312c-28.072-28.072-28.072-73.752,0-101.832
			c28.08-28.072,73.752-28.072,101.832,0L192.84,68.62C158.528,34.308,102.696,34.308,68.384,68.62z"/>
	</g>
</g>
<g>
</g>
<g>
</g>
<g>
</g>
<g>
</g>
<g>
</g>
<g>
</g>
<g>
</g>
<g>
</g>
<g>
</g>
<g>
</g>
<g>
</g>
<g>
</g>
<g>
</g>
<g>
</g>
<g>
</g>
</svg>
