<svg width="30" height="30" viewBox="0 0 30 30" fill="none" xmlns="http://www.w3.org/2000/svg">
<g clip-path="url(#clip0)">
<path d="M0.732356 25.0005H14.0124C14.2066 25.0005 14.3929 24.9233 14.5303 24.786C14.6676 24.6486 14.7448 24.4623 14.7448 24.2681V22.7055C14.7442 22.2513 14.6031 21.8084 14.3409 21.4376C14.0786 21.0667 13.7081 20.7861 13.2801 20.6342V19.6811C13.2794 19.1241 13.0581 18.5902 12.6646 18.1961C12.2711 17.802 11.7375 17.5799 11.1806 17.5785H3.56755C3.01009 17.579 2.47559 17.8007 2.08136 18.1949C1.68713 18.5891 1.46536 19.1236 1.46471 19.6811V20.6342C1.03668 20.7861 0.666127 21.0667 0.403885 21.4376C0.141644 21.8084 0.000563181 22.2513 0 22.7055L0 24.2681C0 24.4623 0.0771587 24.6486 0.214502 24.786C0.351845 24.9233 0.538123 25.0005 0.732356 25.0005ZM3.56755 19.0434H11.1806C11.3492 19.0444 11.5104 19.112 11.6293 19.2315C11.7482 19.3509 11.8151 19.5125 11.8153 19.6811V20.5082H2.92942V19.6811C2.92968 19.5119 2.99701 19.3498 3.11664 19.2303C3.23627 19.1107 3.39843 19.0435 3.56755 19.0434ZM1.46471 22.7055C1.46471 22.5113 1.54187 22.325 1.67921 22.1876C1.81656 22.0503 2.00284 21.9731 2.19707 21.9731H12.5477C12.7419 21.9731 12.9282 22.0503 13.0656 22.1876C13.2029 22.325 13.2801 22.5113 13.2801 22.7055V23.5356H1.46471V22.7055Z" fill="#AFAFAF"/>
<path d="M8.43624 15.2484C8.72689 15.6339 9.13641 15.913 9.60152 16.0424C10.0666 16.1719 10.5614 16.1445 11.0094 15.9646C11.4574 15.7846 11.8337 15.4621 12.0801 15.0469C12.3264 14.6316 12.4292 14.1468 12.3724 13.6673C12.9951 13.5611 13.6043 13.387 14.1892 13.1483L21.0465 22.2568C21.22 22.4874 21.4372 22.6816 21.6858 22.8283C21.9344 22.9749 22.2094 23.0711 22.4951 23.1115C22.7809 23.1519 23.0718 23.1355 23.3513 23.0634C23.6307 22.9914 23.8932 22.8649 24.1238 22.6914C24.3544 22.5178 24.5486 22.3006 24.6952 22.052C24.8418 21.8034 24.9381 21.5283 24.9784 21.2425C25.0188 20.9568 25.0024 20.6658 24.9304 20.3863C24.8583 20.1069 24.7319 19.8443 24.5583 19.6137L17.7001 10.5051C18.0906 10.009 18.4258 9.47161 18.6995 8.90258C19.1446 9.09001 19.6391 9.12554 20.1064 9.00366C20.5738 8.88179 20.9879 8.6093 21.2849 8.22834C21.5818 7.84739 21.7449 7.3792 21.7491 6.8962C21.7532 6.4132 21.598 5.94229 21.3077 5.55633L17.7845 0.875098C17.4939 0.489496 17.0843 0.210392 16.6191 0.0809352C16.154 -0.0485215 15.6591 -0.02112 15.2111 0.158903C14.763 0.338926 14.3868 0.661545 14.1404 1.07688C13.8941 1.49221 13.7915 1.97713 13.8484 2.45667C12.4895 2.6869 11.2056 3.23957 10.1043 4.06834C9.00301 4.89711 8.11642 5.97784 7.51885 7.21993C7.07356 7.03196 6.57873 6.99609 6.111 7.11786C5.64326 7.23963 5.22873 7.51225 4.9316 7.8935C4.63448 8.27474 4.47135 8.74334 4.46748 9.22669C4.46361 9.71005 4.61921 10.1812 4.91019 10.5672L8.43624 15.2484ZM16.6821 11.5887L17.6586 12.8875L16.4868 13.7689L15.5103 12.47C15.9251 12.2098 16.3171 11.915 16.6821 11.5887ZM23.2401 21.5205C23.1632 21.5782 23.0756 21.6202 22.9824 21.644C22.8893 21.6679 22.7923 21.6732 22.6971 21.6596C22.6019 21.646 22.5103 21.6138 22.4276 21.5648C22.3448 21.5158 22.2725 21.4509 22.2148 21.374L17.371 14.9417L18.5428 14.0604L23.3866 20.4946C23.4444 20.5715 23.4864 20.6591 23.5103 20.7524C23.5342 20.8456 23.5395 20.9426 23.5259 21.0379C23.5123 21.1332 23.4801 21.2248 23.431 21.3076C23.382 21.3904 23.3171 21.4628 23.2401 21.5205ZM15.5889 1.61144C15.7443 1.49489 15.9396 1.44484 16.1319 1.47231C16.3242 1.49978 16.4977 1.60252 16.6142 1.75793L20.1383 6.43916C20.2549 6.59456 20.3049 6.7899 20.2774 6.9822C20.25 7.1745 20.1472 7.34801 19.9919 7.46456C19.9149 7.52227 19.8274 7.56427 19.7342 7.58814C19.641 7.61201 19.5441 7.61729 19.4489 7.60369C19.2566 7.57622 19.0831 7.47348 18.9666 7.31808L15.4439 2.63685C15.3272 2.48162 15.2769 2.28641 15.3041 2.09412C15.3313 1.90183 15.4338 1.72821 15.5889 1.61144ZM14.5148 3.84146L17.5521 7.87668C17.0625 9.06899 16.2608 10.1074 15.2312 10.8826C14.2016 11.6579 12.9822 12.1415 11.7011 12.2825L8.6662 8.2468C9.15518 7.05411 9.95676 6.0154 10.9865 5.2401C12.0162 4.4648 13.236 3.98162 14.5172 3.84146H14.5148ZM6.22453 8.66039C6.30147 8.60267 6.38902 8.56069 6.48218 8.53681C6.57535 8.51294 6.6723 8.50766 6.76751 8.52126C6.86272 8.53486 6.95432 8.56709 7.03707 8.61609C7.11983 8.6651 7.19212 8.72993 7.24983 8.80687L10.7739 13.4881C10.8316 13.5651 10.8736 13.6526 10.8975 13.7458C10.9214 13.839 10.9266 13.9359 10.913 14.0311C10.8994 14.1264 10.8672 14.218 10.8182 14.3007C10.7692 14.3835 10.7044 14.4558 10.6275 14.5135C10.5505 14.5712 10.463 14.6132 10.3698 14.6371C10.2766 14.661 10.1797 14.6662 10.0845 14.6526C9.98926 14.639 9.89767 14.6068 9.81491 14.5578C9.73216 14.5088 9.65986 14.444 9.60216 14.367L6.07806 9.68579C6.02048 9.6087 5.97866 9.52101 5.95498 9.42774C5.9313 9.33448 5.92624 9.23746 5.94006 9.14223C5.95389 9.047 5.98635 8.95544 6.03558 8.87276C6.08481 8.79008 6.14984 8.71792 6.22697 8.66039H6.22453Z" fill="#AFAFAF"/>
</g>
<defs>
<clipPath id="clip0">
<rect width="30" height="30" fill="white"/>
</clipPath>
</defs>
</svg>
