<svg height="512pt" viewBox="0 0 512 512" width="512pt" xmlns="http://www.w3.org/2000/svg">
	<path style="fill: #4641fd" d="m200 375.984375c-47.015625 0-91.207031-18.304687-124.457031-51.542969-33.238281-33.234375-51.542969-77.425781-51.542969-124.449218 0-47.015626 18.304688-91.207032 51.542969-124.449219 33.25-33.238281 77.441406-51.542969 124.457031-51.542969s91.207031 18.304688 124.457031 51.542969c68.613281 68.617187 68.613281 180.273437 0 248.890625-33.25 33.246094-77.441406 51.550781-124.457031 51.550781zm0-335.984375c-42.742188 0-82.921875 16.640625-113.144531 46.855469-30.214844 30.214843-46.855469 70.390625-46.855469 113.136719 0 42.742187 16.640625 82.917968 46.855469 113.136718 30.214843 30.214844 70.402343 46.855469 113.144531 46.855469s82.921875-16.640625 113.144531-46.855469c62.382813-62.386718 62.382813-163.882812 0-226.265625-30.222656-30.222656-70.402343-46.863281-113.144531-46.863281zm0 0"/>
	<path style="fill: #4641fd" d="m200 399.984375c-53.425781 0-103.648438-20.800781-141.425781-58.570313-37.773438-37.765624-58.5664065-88-58.574219-141.421874 0-53.425782 20.808594-103.648438 58.574219-141.417969 37.785156-37.765625 88.011719-58.574219 141.425781-58.574219 53.425781 0 103.648438 20.808594 141.425781 58.574219 77.972657 77.976562 77.972657 204.851562 0 282.832031-37.785156 37.777344-88.011719 58.578125-141.425781 58.578125zm0-383.984375c-49.144531 0-95.351562 19.144531-130.113281 53.886719-34.742188 34.753906-53.886719 80.953125-53.886719 130.105469.007812 49.152343 19.144531 95.359374 53.886719 130.113281 34.746093 34.75 80.960937 53.878906 130.113281 53.878906 49.144531 0 95.351562-19.136719 130.113281-53.878906 71.734375-71.746094 71.734375-188.480469 0-260.210938-34.753906-34.75-80.960937-53.894531-130.113281-53.894531zm0 0"/>
	<path style="fill: #4641fd" d="m368.046875 398.671875c-2.046875 0-4.09375-.785156-5.65625-2.34375l-44.0625-44.070313c-3.128906-3.128906-3.128906-8.1875 0-11.3125 3.128906-3.128906 8.183594-3.128906 11.3125 0l44.0625 44.070313c3.128906 3.128906 3.128906 8.183594 0 11.3125-1.558594 1.558594-3.605469 2.34375-5.65625 2.34375zm0 0"/>
	<path style="fill: #4641fd" d="m390.671875 376.046875c-2.046875 0-4.097656-.78125-5.65625-2.34375l-44.113281-44.117187c-3.125-3.128907-3.125-8.1875 0-11.3125 3.128906-3.128907 8.1875-3.128907 11.3125 0l44.113281 44.117187c3.128906 3.128906 3.128906 8.183594 0 11.3125-1.558594 1.5625-3.609375 2.34375-5.65625 2.34375zm0 0"/>
	<path style="fill: #4641fd" d="m356.734375 409.984375c-2.046875 0-4.09375-.785156-5.65625-2.34375-3.125-3.128906-3.125-8.183594 0-11.3125l45.25-45.265625c3.128906-3.125 8.183594-3.125 11.3125 0 3.128906 3.128906 3.128906 8.183594 0 11.3125l-45.25 45.265625c-1.558594 1.558594-3.605469 2.34375-5.65625 2.34375zm0 0"/>
	<path style="fill: #4641fd" d="m449.375 502.625c-2.046875 0-4.09375-.785156-5.65625-2.34375l-92.640625-92.640625c-3.125-3.128906-3.125-8.183594 0-11.3125 3.128906-3.128906 8.1875-3.128906 11.3125 0l92.640625 92.640625c3.128906 3.128906 3.128906 8.183594 0 11.3125-1.558594 1.558594-3.605469 2.34375-5.65625 2.34375zm0 0"/>
	<path style="fill: #4641fd" d="m494.625 457.382812c-2.050781 0-4.097656-.78125-5.65625-2.34375l-92.640625-92.664062c-3.128906-3.128906-3.128906-8.183594 0-11.3125 3.128906-3.125 8.183594-3.125 11.3125 0l92.640625 92.664062c3.125 3.128907 3.125 8.183594 0 11.3125-1.5625 1.5625-3.609375 2.34375-5.65625 2.34375zm0 0"/>
	<path style="fill: #4641fd" d="m472.007812 512c-10.6875 0-20.734374-4.167969-28.289062-11.71875-3.125-3.128906-3.125-8.183594 0-11.3125 3.128906-3.128906 8.183594-3.128906 11.3125 0 9.058594 9.054688 24.878906 9.085938 33.929688 0 4.535156-4.527344 7.039062-10.5625 7.039062-16.976562 0-6.40625-2.496094-12.425782-7.023438-16.945313-3.136718-3.125-3.136718-8.183594-.015624-11.3125 3.128906-3.140625 8.199218-3.125 11.3125-.015625 7.558593 7.546875 11.726562 17.585938 11.726562 28.273438s-4.167969 20.734374-11.71875 28.289062c-7.546875 7.550781-17.585938 11.71875-28.273438 11.71875zm0 0"/>
	<path style="fill: #4641fd" d="m72.007812 316.199219c-4.421874 0-8-3.574219-8-8v-132.199219c0-4.425781 3.578126-8 8-8 4.425782 0 8 3.574219 8 8v132.199219c0 4.425781-3.574218 8-8 8zm0 0"/>
	<path style="fill: #4641fd" d="m320 325.558594c-4.425781 0-8-3.574219-8-8v-141.558594c0-4.425781 3.574219-8 8-8s8 3.574219 8 8v141.558594c0 4.425781-3.574219 8-8 8zm0 0"/>
	<path style="fill: #4641fd" d="m320 184h-247.992188c-4.421874 0-8-3.574219-8-8s3.578126-8 8-8h247.992188c4.425781 0 8 3.574219 8 8s-3.574219 8-8 8zm0 0"/>
	<path style="fill: #4641fd" d="m72 184c-1.671875 0-3.351562-.519531-4.792969-1.601562-3.535156-2.644532-4.253906-7.664063-1.597656-11.191407l24-32c2.648437-3.535156 7.671875-4.238281 11.191406-1.597656 3.535157 2.648437 4.253907 7.664063 1.597657 11.191406l-24 32c-1.566407 2.09375-3.957032 3.199219-6.398438 3.199219zm0 0"/>
	<path style="fill: #4641fd" d="m320.007812 184c-2.441406 0-4.832031-1.105469-6.40625-3.199219l-24-32c-2.65625-3.527343-1.9375-8.542969 1.597657-11.191406 3.519531-2.648437 8.542969-1.945313 11.191406 1.597656l24 32c2.65625 3.527344 1.9375 8.546875-1.597656 11.191407-1.433594 1.082031-3.113281 1.601562-4.785157 1.601562zm0 0"/>
	<path style="fill: #4641fd" d="m296 152h-199.992188c-4.421874 0-8-3.574219-8-8s3.578126-8 8-8h199.992188c4.425781 0 8 3.574219 8 8s-3.574219 8-8 8zm0 0"/>
	<path style="fill: #4641fd" d="m176.007812 184c-.640624 0-1.296874-.078125-1.945312-.238281-4.285156-1.074219-6.894531-5.417969-5.824219-9.699219l8-32c1.066407-4.292969 5.417969-6.917969 9.699219-5.824219 4.285156 1.074219 6.894531 5.417969 5.824219 9.699219l-8 32c-.914063 3.636719-4.167969 6.0625-7.753907 6.0625zm0 0"/>
	<path style="fill: #4641fd" d="m223.992188 184c-3.585938 0-6.839844-2.425781-7.753907-6.0625l-8-32c-1.078125-4.28125 1.53125-8.625 5.824219-9.699219 4.273438-1.09375 8.625 1.53125 9.699219 5.824219l8 32c1.078125 4.28125-1.53125 8.625-5.824219 9.699219-.648438.160156-1.304688.238281-1.945312.238281zm0 0"/>
	<path style="fill: #4641fd" d="m176 232c-4.425781 0-8-3.574219-8-8v-48c0-4.425781 3.574219-8 8-8s8 3.574219 8 8v48c0 4.425781-3.574219 8-8 8zm0 0"/>
	<path style="fill: #4641fd" d="m224 232c-4.425781 0-8-3.574219-8-8v-48c0-4.425781 3.574219-8 8-8s8 3.574219 8 8v48c0 4.425781-3.574219 8-8 8zm0 0"/>
	<path style="fill: #4641fd" d="m224 232c-.832031 0-1.6875-.136719-2.527344-.414062l-24-8c-4.183594-1.394532-6.457031-5.921876-5.058594-10.121094 1.402344-4.183594 5.890626-6.472656 10.121094-5.058594l24 8c4.183594 1.394531 6.457032 5.921875 5.058594 10.121094-1.121094 3.351562-4.242188 5.472656-7.59375 5.472656zm0 0"/>
	<path style="fill: #4641fd" d="m176 232c-3.351562 0-6.472656-2.121094-7.585938-5.472656-1.398437-4.191406.867188-8.726563 5.058594-10.121094l24-8c4.214844-1.414062 8.71875.867188 10.121094 5.058594 1.398438 4.191406-.867188 8.726562-5.058594 10.121094l-24 8c-.847656.277343-1.703125.414062-2.535156.414062zm0 0"/>
	<path style="fill: #4641fd" d="m240 304h-80c-4.425781 0-8-3.574219-8-8s3.574219-8 8-8h80c4.425781 0 8 3.574219 8 8s-3.574219 8-8 8zm0 0"/>
	<path style="fill: #4641fd" d="m216 328h-32c-4.425781 0-8-3.574219-8-8s3.574219-8 8-8h32c4.425781 0 8 3.574219 8 8s-3.574219 8-8 8zm0 0"/></svg>