<?xml version="1.0"?>
<svg xmlns="http://www.w3.org/2000/svg" id="Layer_1" data-name="Layer 1" viewBox="0 0 512 512" width="512" height="512"><title>a2</title><path style="fill: #4641fd" d="M423.731,236.19l-.2.133a5.435,5.435,0,0,0-1.491-1.208L367,207.258V163h20.067a6.062,6.062,0,0,0,4.883-9.565L348.1,92.03a6,6,0,0,0-9.765-.01l-43.851,61.39a6.075,6.075,0,0,0,4.882,9.59H320v20.48l-41-20.514V95h20.364a6.193,6.193,0,0,0,4.883-9.726L260.4,23.842a5.993,5.993,0,0,0-9.765-.029L206.779,85.2a6.28,6.28,0,0,0-.453,6.389A6.15,6.15,0,0,0,211.661,95H232v67.966l-31.912,16.109L172.7,140.74a6.006,6.006,0,0,0-9.77,0l-43.852,61.392a6.34,6.34,0,0,0-.453,6.423A6.18,6.18,0,0,0,123.958,212h11.675L89.109,235.305a5.692,5.692,0,0,0-1.65,1.154l-.2-.174-46.3,71.561a5.972,5.972,0,0,0-.7,5,5.765,5.765,0,0,0,3.237,3.758L86,334.751v57.356a6.148,6.148,0,0,0,3.189,5.219l163.288,92.6a6.134,6.134,0,0,0,3,.781,6.067,6.067,0,0,0,2.98-.781l163.358-92.6A6.142,6.142,0,0,0,425,392.107V335.165L468.487,316.6a5.9,5.9,0,0,0,3.327-3.792,6.013,6.013,0,0,0-.772-5.036Zm-18.395,3.872L367,256.712V220.7ZM311.023,151l32.193-45.069L375.408,151H360.756A5.709,5.709,0,0,0,355,156.9V261.924l-23,10.024V156.9a6.2,6.2,0,0,0-6.325-5.9ZM320,196.924V277.16L279,294.8V176.409Zm-103.457,5.3L207.145,189,232,176.409V294.8L191,277.16V212h20.661a6.231,6.231,0,0,0,4.882-9.773ZM135.617,200l32.193-45.069L200,200H185.351c-3.314,0-6.351,2.306-6.351,5.62v66.328l-23-10.024v-56.3a5.461,5.461,0,0,0-5.731-5.62ZM144,220.7v36.01l-38.336-16.65Zm-89.089,87.65,39.067-60.4L246.287,314.1,206.98,373.062ZM250,474.407,98,388.613V339.857l108.712,46.2a6.354,6.354,0,0,0,2.422.48,6.5,6.5,0,0,0,5.276-2.673L250,330.9Zm5.5-169.38L244,300.015V88.682A5.761,5.761,0,0,0,237.972,83H223.32l32.193-45.069L287.705,83H273.053A5.783,5.783,0,0,0,267,88.682V300.015ZM413,388.613,262,474.407V329.435l36.04,54.425a5.791,5.791,0,0,0,4.873,2.673,6.359,6.359,0,0,0,2.423-.48L413,340.272ZM305.02,373.062l-39.526-59.287L417.1,247.929l39.922,60.45Z"/></svg>
