<?xml version="1.0" encoding="utf-8"?>
<!-- Generator: Adobe Illustrator 23.1.0, SVG Export Plug-In . SVG Version: 6.00 Build 0)  -->
<svg version="1.1" id="Capa_1" xmlns="http://www.w3.org/2000/svg" xmlns:xlink="http://www.w3.org/1999/xlink" x="0px" y="0px"
	 viewBox="0 0 60 60" style="enable-background:new 0 0 60 60;" xml:space="preserve">
<style type="text/css">
	.st0{fill:#4F4AFD;}
	.st1{fill:#F24797;}
</style>
<g>
	<path class="st0" d="M16.6,10c0.4,1.2,1.5,2,2.7,2h7.4c1.2,0,2.3-0.8,2.7-2c0.4-1.1,1.6-3.6,2.6-4.4c0.8-0.7,1.2-1.8,1-2.8
		c-0.2-1-0.9-1.8-1.9-2.2c-3-1-5.7-0.7-7.7,1c-0.4,0.3-0.9,0.3-1.2,0c-2-1.6-4.7-2-7.7-1c-1,0.3-1.7,1.1-1.9,2.2
		c-0.2,1,0.2,2.1,1,2.8C14.7,6.5,16.3,9.2,16.6,10z M14.5,3.1c0-0.2,0.2-0.5,0.6-0.7C16.1,2.2,16.9,2,17.7,2C19,2,20,2.4,20.9,3.1
		C22,4,23.6,4,24.7,3.1c1.5-1.2,3.5-1.4,5.8-0.6c0.4,0.1,0.6,0.5,0.6,0.7c0.1,0.3-0.1,0.7-0.3,0.9c-1.5,1.3-2.9,4.6-3.1,5.3
		c-0.1,0.4-0.5,0.6-0.8,0.6h-7.4c-0.4,0-0.7-0.3-0.8-0.6c-0.4-1.2-2.3-4.2-3.6-5.3C14.6,3.8,14.5,3.5,14.5,3.1z"/>
	<path class="st0" d="M31.5,14c0-0.6-0.4-1-1-1c-0.2,0-0.4,0.1-0.5,0.2c-0.1-0.1-0.3-0.2-0.5-0.2h-12c-0.6,0-1,0.4-1,1s0.4,1,1,1h12
		v1h-11c-0.6,0-1,0.4-1,1s0.4,1,1,1h11.9c0.9,0.7,2,1.2,3.2,1.2c1.3,0,2.6-0.5,3.5-1.5c0.4-0.4,0.4-1,0-1.4c-0.4-0.4-1-0.4-1.4,0
		c-1.1,1.1-3.1,1.1-4.2,0V14z"/>
	<path class="st0" d="M21.5,26c-6.4,0-14,8.1-14,15c0,0.6,0.4,1,1,1s1-0.4,1-1c0-5.7,6.7-13,12-13c0.6,0,1-0.4,1-1S22.1,26,21.5,26z
		"/>
	<path class="st0" d="M49.5,32c-1,0-2.3,0.1-3.5,0.2c-1.3-2.5-3.1-4.6-5.4-6.3L33.5,21c-1.2-0.9-3.1-2-5.2-2h-7.8
		c-1.9,0-3.8,0.7-5.3,1.8L8.1,26c-7.4,5.8-9.7,16-5.6,24.2c1.5,3,4,6.6,7.5,6.8c0.3,0,0.5,0,0.8,0h19.5c1.5,1.8,3.7,3,6.2,3
		c2.9,0,5.4-1.6,6.8-3.9c1.8,0.6,4,0.9,6.2,0.9c4.8,0,10-1.5,10-4v-5.5h-0.1c0-0.2,0.1-0.3,0.1-0.5v-6v-5.5
		C59.5,32.7,53.2,32,49.5,32z M57.5,35.5C57.4,35.5,57.4,35.5,57.5,35.5c-0.1,0.1-0.2,0.1-0.2,0.2c-0.1,0-0.1,0.1-0.2,0.1
		c-0.1,0-0.1,0.1-0.2,0.1c-0.1,0-0.2,0.1-0.4,0.1c-0.1,0-0.2,0.1-0.3,0.1c-0.1,0-0.3,0.1-0.5,0.1c-0.1,0-0.3,0.1-0.4,0.1
		c-0.2,0-0.4,0.1-0.6,0.1c-0.2,0-0.3,0.1-0.5,0.1c-0.2,0-0.5,0.1-0.8,0.1c-0.2,0-0.3,0.1-0.5,0.1c-0.3,0-0.7,0.1-1,0.1
		c-0.2,0-0.3,0-0.5,0c-0.5,0-1.1,0-1.7,0s-1.2,0-1.7,0c-0.2,0-0.3,0-0.5,0c-0.3,0-0.7-0.1-1-0.1c-0.2,0-0.4,0-0.5-0.1
		c-0.3,0-0.5-0.1-0.8-0.1c-0.2,0-0.3-0.1-0.5-0.1c-0.2,0-0.4-0.1-0.6-0.1c-0.1,0-0.3-0.1-0.4-0.1c-0.2,0-0.3-0.1-0.5-0.1
		c-0.1,0-0.2-0.1-0.3-0.1c-0.1,0-0.3-0.1-0.4-0.1c-0.1,0-0.2-0.1-0.2-0.1c-0.1,0-0.2-0.1-0.2-0.1c-0.1,0-0.1-0.1-0.1-0.1
		c0,0,0,0-0.1-0.1c0,0,0,0,0,0c0,0,0.1-0.1,0.1-0.1c0.1-0.1,0.2-0.1,0.3-0.2c0.1,0,0.1-0.1,0.2-0.1c0.1,0,0.2-0.1,0.3-0.1
		c0.1,0,0.2-0.1,0.4-0.1c0.1,0,0.2-0.1,0.3-0.1c0.2-0.1,0.5-0.1,0.7-0.2c0.1,0,0.3-0.1,0.4-0.1c0.2,0,0.3-0.1,0.5-0.1
		c0.2,0,0.4-0.1,0.6-0.1c1.1-0.2,2.5-0.3,4.1-0.3C54.3,34,56.9,35,57.5,35.5z M42.2,43.7c0.1,0,0.2,0.1,0.3,0.1
		c0.2,0.1,0.4,0.1,0.5,0.2c0.1,0,0.2,0.1,0.3,0.1c0.2,0.1,0.4,0.1,0.7,0.2c0.1,0,0.2,0,0.2,0.1c0.3,0.1,0.6,0.1,0.9,0.2
		c0.1,0,0.1,0,0.2,0c0.3,0,0.5,0.1,0.8,0.1c0.1,0,0.2,0,0.3,0c0.2,0,0.5,0.1,0.7,0.1c0.1,0,0.2,0,0.4,0c0.2,0,0.5,0,0.7,0.1
		c0.1,0,0.2,0,0.3,0c0.3,0,0.7,0,1,0s0.7,0,1,0c0.1,0,0.2,0,0.3,0c0.2,0,0.5,0,0.7,0c0.1,0,0.2,0,0.4,0c0.2,0,0.4,0,0.7-0.1
		c0.1,0,0.2,0,0.3,0c0.3,0,0.5-0.1,0.8-0.1c0.1,0,0.1,0,0.2,0c0.3-0.1,0.6-0.1,0.9-0.2c0.1,0,0.2,0,0.2-0.1c0.2-0.1,0.4-0.1,0.6-0.2
		c0.1,0,0.2-0.1,0.3-0.1c0.2-0.1,0.4-0.1,0.5-0.2c0.1,0,0.2-0.1,0.3-0.1c0.2-0.1,0.4-0.2,0.5-0.2c0.1,0,0.1,0,0.2-0.1l0,3.5
		c-0.2,0.6-2.8,1.8-6.9,2c-0.4,0-0.7,0-1.1,0c-2.2,0-4.4-0.3-6-0.9c0,0,0,0,0,0c-0.1-0.2-0.2-0.4-0.4-0.6c0,0,0-0.1-0.1-0.1
		c-0.1-0.2-0.3-0.3-0.4-0.5c0,0-0.1-0.1-0.1-0.1c-0.1-0.1-0.2-0.3-0.4-0.4c-0.1-0.1-0.1-0.1-0.2-0.2c-0.1-0.1-0.2-0.2-0.4-0.3
		c0,0,0,0,0,0c0-0.4,0-1.3,0-2.4c0.1,0,0.1,0,0.2,0.1C41.9,43.6,42,43.6,42.2,43.7z M29,55H10.8c-0.2,0-0.5,0-0.7,0
		c-2-0.1-4-2.2-5.9-5.7c-3.7-7.4-1.6-16.5,5-21.7l7.1-5.2c1.2-0.9,2.6-1.4,4.1-1.4h7.8c1.6,0,3.1,0.9,4.1,1.6l7.2,4.9
		c1.8,1.4,3.3,3,4.4,5c-1.3,0.3-2.5,0.7-3.3,1.2c0,0,0,0-0.1,0c-0.1,0.1-0.2,0.2-0.3,0.3c0,0-0.1,0.1-0.1,0.1
		c-0.1,0.1-0.2,0.2-0.2,0.3c-0.1,0.1-0.1,0.2-0.1,0.2c0,0.1-0.1,0.1-0.1,0.2c-0.1,0.2-0.1,0.3-0.1,0.5V41v3.6
		c-0.3-0.1-0.7-0.2-1-0.3c0,0-0.1,0-0.1,0c-0.3-0.1-0.7-0.1-1.1-0.2c0,0-0.1,0-0.1,0c-0.2,0-0.4,0-0.6,0c-0.1,0-0.2,0-0.3,0
		c-0.1,0-0.2,0-0.3,0c-0.4,0-0.7,0.1-1,0.1c0,0,0,0,0,0c0,0-0.1,0-0.1,0c-0.3,0.1-0.6,0.2-0.9,0.3c-0.1,0-0.2,0.1-0.3,0.1
		c-0.3,0.1-0.6,0.3-0.9,0.4c-0.1,0.1-0.2,0.1-0.3,0.2c-0.2,0.1-0.4,0.2-0.6,0.4c-0.1,0.1-0.2,0.2-0.3,0.2c-0.2,0.2-0.5,0.4-0.7,0.6
		c-0.1,0.1-0.2,0.2-0.3,0.3c-0.1,0.2-0.3,0.3-0.4,0.5c-0.1,0.1-0.1,0.2-0.2,0.3c-0.2,0.3-0.3,0.5-0.5,0.8c-0.1,0.1-0.1,0.2-0.2,0.3
		c-0.1,0.2-0.2,0.5-0.3,0.8c0,0.1-0.1,0.1-0.1,0.2c-0.1,0.3-0.2,0.7-0.2,1c0,0,0,0.1,0,0.1c0,0.1,0,0.1,0,0.2c0,0.2-0.1,0.5-0.1,0.7
		c0,0.1,0,0.2,0,0.3c0,0,0,0.1,0,0.1c0,0.2,0,0.3,0,0.5C28.6,53.3,28.7,54.2,29,55z M36.5,58c-3.3,0-6-2.7-6-5.9c0-0.1,0-0.2,0-0.2
		c0-0.1,0-0.2,0-0.3c0-0.1,0-0.2,0-0.3c0-0.1,0-0.2,0-0.3c0-0.3,0.1-0.5,0.2-0.8c0,0,0-0.1,0-0.1c0.1-0.3,0.2-0.5,0.3-0.7
		c0,0,0,0,0-0.1c0.5-1.1,1.4-2,2.4-2.5c0,0,0,0,0,0c0.2-0.1,0.5-0.2,0.7-0.3c0.1,0,0.1,0,0.2-0.1c0.2-0.1,0.4-0.1,0.7-0.2
		c0,0,0.1,0,0.1,0c0.3-0.1,0.6-0.1,0.9-0.1c0.1,0,0.1,0,0.2,0c0.3,0,0.6,0,0.9,0c0,0,0,0,0,0c0.3,0,0.6,0.1,0.9,0.2c0,0,0,0,0,0
		c0.3,0.1,0.6,0.2,0.9,0.3c0.3,0.1,0.5,0.3,0.8,0.4l0,0c0,0,0.1,0.1,0.1,0.1c0.2,0.1,0.3,0.2,0.5,0.4c0,0,0.1,0.1,0.1,0.1
		c0.2,0.1,0.3,0.3,0.4,0.4c0,0,0,0,0,0c0.3,0.4,0.6,0.8,0.8,1.2c0.1,0.1,0.1,0.2,0.1,0.3c0.1,0.2,0.1,0.4,0.2,0.5c0,0,0,0,0,0
		c0.1,0.2,0.1,0.4,0.1,0.5c0,0,0,0,0,0c0,0.2,0.1,0.4,0.1,0.6c0,0,0,0,0,0c0,0.2,0,0.4,0,0.6c0,0.2,0,0.4,0,0.6c0,0,0,0.1,0,0.1
		c0,0.2,0,0.4-0.1,0.5c0,0,0,0,0,0.1c0,0.2-0.1,0.4-0.2,0.6c0,0,0,0,0,0c-0.1,0.2-0.1,0.4-0.2,0.6C41,56.6,39,58,36.5,58z M49.5,55
		c-1.9,0-3.8-0.3-5.3-0.7c0,0,0,0,0,0c0.1-0.3,0.2-0.7,0.2-1c0-0.1,0-0.2,0-0.2c0-0.3,0.1-0.7,0.1-1c0-0.3,0-0.5,0-0.8
		c0-0.1,0-0.2,0-0.3c0-0.1,0-0.3-0.1-0.4c1.5,0.3,3.3,0.4,5.1,0.4c2.4,0,5.8-0.3,8-1.3l0,3.2C57.3,53.5,54.3,55,49.5,55z M49.5,43
		c-4.7,0-7.7-1.4-8-2c0-1.1,0-2.3,0-3.3c0,0,0.1,0,0.1,0c0.2,0.1,0.5,0.2,0.8,0.3c0,0,0,0,0,0c0.3,0.1,0.6,0.2,0.9,0.2
		c0.1,0,0.2,0,0.3,0.1c0.2,0,0.4,0.1,0.7,0.1c0.1,0,0.2,0,0.3,0.1c0.2,0,0.5,0.1,0.7,0.1c0.1,0,0.2,0,0.2,0c0.3,0,0.6,0.1,1,0.1
		c0.1,0,0.2,0,0.2,0c0.2,0,0.5,0,0.7,0.1c0.1,0,0.2,0,0.3,0c0.2,0,0.4,0,0.7,0c0.1,0,0.2,0,0.3,0c0.3,0,0.6,0,0.8,0
		c0.3,0,0.6,0,0.8,0c0.1,0,0.2,0,0.3,0c0.2,0,0.4,0,0.7,0c0.1,0,0.2,0,0.3,0c0.2,0,0.5,0,0.7-0.1c0.1,0,0.2,0,0.2,0
		c0.3,0,0.6-0.1,1-0.1c0.1,0,0.2,0,0.2,0c0.2,0,0.5-0.1,0.7-0.1c0.1,0,0.2,0,0.3-0.1c0.2,0,0.4-0.1,0.7-0.1c0.1,0,0.2,0,0.3-0.1
		c0.3-0.1,0.6-0.2,0.9-0.2c0,0,0,0,0,0c0.3-0.1,0.5-0.2,0.7-0.3c0,0,0.1,0,0.1,0l0,3.2C57.3,41.5,54.3,43,49.5,43z"/>
</g>
<path class="st1" d="M49.5,8.6h-8.1l1.9-1.9c0.6-0.6,0.6-1.6,0-2.2c-0.6-0.6-1.6-0.6-2.2,0l-2.9,2.8c-0.7,0.7-1.1,1.7-1.1,2.7
	c0,1,0.4,2,1.1,2.7l2.9,2.8c0.3,0.3,0.7,0.4,1.1,0.4c0.4,0,0.8-0.2,1.1-0.5c0.6-0.6,0.6-1.6,0-2.2l-1.8-1.8h7.9
	c2.1,0,3.7,1.7,3.7,3.7s-1.7,3.7-3.7,3.7c-0.8,0-1.5,0.7-1.5,1.5s0.7,1.5,1.5,1.5c1.8,0,3.5-0.7,4.8-2c1.3-1.3,2-3,2-4.8
	C56.3,11.7,53.3,8.6,49.5,8.6z"/>
</svg>
