<svg width="25" height="25" viewBox="0 0 25 25" fill="none" xmlns="http://www.w3.org/2000/svg">
<path d="M12.3219 12.0426C13.9763 12.0426 15.4087 11.4492 16.5794 10.2785C17.7498 9.10795 18.3434 7.67573 18.3434 6.02111C18.3434 4.36706 17.75 2.93464 16.5792 1.76372C15.4085 0.593375 13.9761 0 12.3219 0C10.6672 0 9.235 0.593375 8.06446 1.76391C6.89392 2.93445 6.30035 4.36687 6.30035 6.02111C6.30035 7.67573 6.89392 9.10815 8.06446 10.2787C9.23538 11.449 10.6678 12.0426 12.3219 12.0426ZM9.10053 2.79979C9.9987 1.90162 11.0523 1.46503 12.3219 1.46503C13.5912 1.46503 14.645 1.90162 15.5434 2.79979C16.4415 3.69815 16.8783 4.75196 16.8783 6.02111C16.8783 7.29064 16.4415 8.34425 15.5434 9.24261C14.645 10.141 13.5912 10.5776 12.3219 10.5776C11.0527 10.5776 9.99908 10.1408 9.10053 9.24261C8.20217 8.34444 7.76539 7.29064 7.76539 6.02111C7.76539 4.75196 8.20217 3.69815 9.10053 2.79979Z" fill="#AFAFAF"/>
<path d="M22.8579 19.2237C22.8241 18.7366 22.7558 18.2052 22.6553 17.6441C22.5538 17.0787 22.4232 16.5443 22.2668 16.0558C22.105 15.551 21.8855 15.0524 21.6137 14.5746C21.332 14.0787 21.0009 13.6469 20.6293 13.2915C20.2408 12.9198 19.7651 12.6209 19.215 12.4029C18.6668 12.186 18.0593 12.0762 17.4095 12.0762C17.1543 12.0762 16.9075 12.1809 16.4309 12.4912C16.1375 12.6825 15.7944 12.9038 15.4114 13.1485C15.0839 13.3571 14.6402 13.5526 14.0923 13.7296C13.5576 13.9026 13.0148 13.9904 12.4788 13.9904C11.9432 13.9904 11.4004 13.9026 10.8654 13.7296C10.318 13.5528 9.87415 13.3573 9.54723 13.1487C9.16786 12.9062 8.82454 12.685 8.5268 12.491C8.05054 12.1807 7.80373 12.076 7.54852 12.076C6.8985 12.076 6.2912 12.186 5.74322 12.4031C5.19352 12.6207 4.71764 12.9196 4.32873 13.2917C3.95718 13.6472 3.62606 14.0789 3.34454 14.5746C3.07312 15.0524 2.85339 15.5508 2.69165 16.056C2.53544 16.5445 2.40479 17.0787 2.30331 17.6441C2.20261 18.2045 2.13451 18.736 2.10075 19.2243C2.06757 19.7017 2.05078 20.1986 2.05078 20.7006C2.05078 22.0056 2.46563 23.0621 3.28369 23.8412C4.09164 24.6101 5.16052 25 6.46076 25H18.4984C19.7983 25 20.8672 24.6101 21.6753 23.8412C22.4936 23.0627 22.9084 22.0058 22.9084 20.7004C22.9082 20.1967 22.8912 19.6998 22.8579 19.2237ZM20.6652 22.7798C20.1313 23.2879 19.4225 23.5349 18.4982 23.5349H6.46076C5.53627 23.5349 4.8275 23.2879 4.29382 22.78C3.77026 22.2816 3.51582 21.6013 3.51582 20.7006C3.51582 20.2322 3.53127 19.7696 3.56216 19.3256C3.5923 18.89 3.65391 18.4114 3.74527 17.9029C3.83549 17.4007 3.95031 16.9294 4.08688 16.5027C4.21791 16.0936 4.39663 15.6885 4.61826 15.2982C4.82979 14.9263 5.07317 14.6072 5.34172 14.3501C5.59292 14.1096 5.90954 13.9127 6.28262 13.7651C6.62766 13.6286 7.01542 13.5538 7.43637 13.5425C7.48768 13.5698 7.57904 13.6219 7.72705 13.7184C8.02822 13.9147 8.37536 14.1386 8.75912 14.3837C9.1917 14.6595 9.74903 14.9086 10.4149 15.1235C11.0956 15.3436 11.7899 15.4554 12.479 15.4554C13.1681 15.4554 13.8626 15.3436 14.543 15.1237C15.2094 14.9084 15.7665 14.6595 16.1997 14.3833C16.5924 14.1323 16.9298 13.9148 17.231 13.7184C17.379 13.6221 17.4704 13.5698 17.5217 13.5425C17.9428 13.5538 18.3306 13.6286 18.6758 13.7651C19.0487 13.9127 19.3653 14.1098 19.6165 14.3501C19.8851 14.607 20.1284 14.9261 20.34 15.2984C20.5618 15.6885 20.7407 16.0938 20.8715 16.5025C21.0083 16.9298 21.1233 17.4009 21.2133 17.9027C21.3045 18.4122 21.3663 18.8909 21.3964 19.3258V19.3262C21.4275 19.7685 21.4432 20.2308 21.4434 20.7006C21.4432 21.6014 21.1887 22.2816 20.6652 22.7798Z" fill="#AFAFAF"/>
</svg>
