<svg width="12" height="12" viewBox="0 0 12 12" fill="none" xmlns="http://www.w3.org/2000/svg">
<path d="M6 0C2.68352 0 0 2.68376 0 6C0 9.31648 2.68376 12 6 12C9.31648 12 12 9.31624 12 6C12 2.68352 9.31624 0 6 0ZM6 11.0625C3.20173 11.0625 0.9375 8.79809 0.9375 6C0.9375 3.20173 3.20191 0.9375 6 0.9375C8.79827 0.9375 11.0625 3.20191 11.0625 6C11.0625 8.79827 8.79809 11.0625 6 11.0625Z" fill="#4643F2"/>
<path d="M6 3.02054C5.74111 3.02054 5.53125 3.2304 5.53125 3.48929V6.50786C5.53125 6.76675 5.74111 6.97661 6 6.97661C6.25889 6.97661 6.46875 6.76675 6.46875 6.50786V3.48929C6.46875 3.2304 6.25889 3.02054 6 3.02054Z" fill="#4643F2"/>
<path d="M6 8.81625C6.34949 8.81625 6.63281 8.53293 6.63281 8.18344C6.63281 7.83395 6.34949 7.55063 6 7.55063C5.65051 7.55063 5.36719 7.83395 5.36719 8.18344C5.36719 8.53293 5.65051 8.81625 6 8.81625Z" fill="#4643F2"/>
</svg>
